<svg width="21" height="20" viewBox="0 0 21 20" fill="none" xmlns="http://www.w3.org/2000/svg">
<path d="M17.6589 7.5H10.1589C9.23838 7.5 8.49219 8.24619 8.49219 9.16667V16.6667C8.49219 17.5871 9.23838 18.3333 10.1589 18.3333H17.6589C18.5793 18.3333 19.3255 17.5871 19.3255 16.6667V9.16667C19.3255 8.24619 18.5793 7.5 17.6589 7.5Z" stroke="currentColor" stroke-width="2" stroke-linecap="round" stroke-linejoin="round"/>
<path d="M5.15918 12.4993H4.32585C3.88382 12.4993 3.4599 12.3238 3.14733 12.0112C2.83477 11.6986 2.65918 11.2747 2.65918 10.8327V3.33268C2.65918 2.89065 2.83477 2.46673 3.14733 2.15417C3.4599 1.84161 3.88382 1.66602 4.32585 1.66602H11.8258C12.2679 1.66602 12.6918 1.84161 13.0044 2.15417C13.3169 2.46673 13.4925 2.89065 13.4925 3.33268V4.16602" stroke="currentColor" stroke-width="2" stroke-linecap="round" stroke-linejoin="round"/>
</svg>
