<svg width="16" height="16" viewBox="0 0 16 16" fill="none" xmlns="http://www.w3.org/2000/svg">
<path d="M12.9485 7.35199C13.1738 7.12661 13.4795 7 13.7982 7C14.117 7 14.4226 7.12661 14.648 7.35199C14.8734 7.57737 15 7.88304 15 8.20177C15 8.5205 14.8734 8.82617 14.648 9.05155L9.26608 14.4335L7 15L7.56652 12.7339L12.9485 7.35199Z" fill="currentColor"/>
<path d="M4.70049 13.3329H3.50322H2.76172C2.20943 13.3329 1.76172 12.8852 1.76172 12.3329V2.85668C1.76172 2.60409 1.85346 2.36185 2.01676 2.18324C2.18005 2.00464 2.40153 1.9043 2.63247 1.9043H10.0338C10.2648 1.9043 10.4862 2.00464 10.6495 2.18324C10.8128 2.36185 10.9046 2.60409 10.9046 2.85668V5.23763" stroke="currentColor" stroke-width="2" stroke-linecap="round" stroke-linejoin="round"/>
</svg>
