<svg width="25" height="22" viewBox="0 0 25 22" fill="none" xmlns="http://www.w3.org/2000/svg">
<path d="M16.1366 0.757812H14.1601L15.1483 2.47311L16.1366 4.1884L17.1319 5.90369L17.026 6.08722L16.1366 7.62605L14.153 11.0566L13.8566 11.579L12.1695 14.4943L10.4895 11.579L10.193 11.0566L8.20951 7.62605L7.00951 5.55781L6.22598 4.1884L5.06127 2.17664L4.24245 0.757812H0.275391L1.09422 2.17664L2.25892 4.1884L3.04951 5.55781L4.24245 7.62605L6.22598 11.0566L6.81186 12.0802L8.20951 14.4943L10.193 17.9249L12.1695 21.3625L14.153 17.9249L16.1366 14.4943L17.8236 11.579L18.1201 11.0566L20.1036 7.62605L20.993 6.08722L22.0872 4.1884L24.0707 0.757812H20.1036H16.1366Z" fill="#004584"/>
</svg>
