<svg width="88" height="13" viewBox="0 0 88 13" fill="none" xmlns="http://www.w3.org/2000/svg">
<path fill-rule="evenodd" clip-rule="evenodd" d="M63.0889 12.1511H73.7787V10.1435H65.1887V7.17998H72.9197V5.17242H65.1887V2.30447H73.7787V0.201309H63.0889V12.1511Z" fill="currentColor"/>
<path fill-rule="evenodd" clip-rule="evenodd" d="M41.423 6.0328H35.1236V2.30447H41.423C42.4729 2.30447 43.141 3.16486 43.141 4.12084C43.141 5.17242 42.4729 6.0328 41.423 6.0328ZM45.2408 4.12084C45.2408 2.01768 43.5228 0.201309 41.3276 0.201309H33.0239V12.1511H35.1236V8.04037H40.4685L42.8547 12.1511H45.2408L42.7592 7.84917C44.1909 7.27558 45.2408 5.84161 45.2408 4.12084Z" fill="currentColor"/>
<path fill-rule="evenodd" clip-rule="evenodd" d="M78.9327 10.1435V0.201309H76.9284V12.1511H88V10.1435H78.9327Z" fill="currentColor"/>
<path fill-rule="evenodd" clip-rule="evenodd" d="M6.87202 7.84917L2.48156 0.201309H0V12.1511H2.19523V3.83404L6.96746 12.1511L11.8351 3.73845V12.1511H14.0304V0.201309H11.3579L6.87202 7.84917Z" fill="currentColor"/>
<path fill-rule="evenodd" clip-rule="evenodd" d="M56.026 0.201309H54.8807L55.4533 1.25289L56.026 2.20887L56.5987 3.26045V3.35605L56.026 4.21644L54.8807 6.3196L54.6898 6.60639L53.7353 8.32716L52.6854 6.60639L52.4946 6.3196L51.3492 4.21644L50.6811 3.06926L50.2039 2.20887L49.5358 1.06169L49.0585 0.201309H46.6724L47.1496 1.06169L47.9132 2.20887L48.295 3.06926L49.0585 4.21644L50.2039 6.3196L50.5857 6.89319L51.3492 8.32716L52.4946 10.3347L53.7353 12.3423L54.8807 10.3347L56.026 8.32716L56.9805 6.60639L57.1713 6.3196L58.4121 4.21644L58.8893 3.35605L59.5575 2.20887L60.7028 0.201309H56.026Z" fill="currentColor"/>
<path fill-rule="evenodd" clip-rule="evenodd" d="M21.1887 8.32717L23.4794 4.12084L25.8655 8.32717H21.1887ZM16.5119 12.1511H18.9935L20.0434 10.2391H27.0108L28.0607 12.1511H30.5423L23.4794 0.0101166L16.5119 12.1511Z" fill="currentColor"/>
</svg>
