<svg width="17" height="16" viewBox="0 0 17 16" fill="none" xmlns="http://www.w3.org/2000/svg">
<path d="M1.00033 13.9277L1.00033 9.48373L5.44434 9.48373" stroke="currentColor" stroke-width="2" stroke-linecap="round" stroke-linejoin="round"/>
<path d="M2.85925 5.77944C3.34071 4.41667 4.25204 3.2473 5.45591 2.44754C6.65979 1.64778 8.09099 1.26096 9.53384 1.34537C10.9767 1.42978 12.353 1.98084 13.4554 2.91552C14.5578 3.8502 15.3266 5.11786 15.6459 6.52747C15.9651 7.93708 15.8176 9.41228 15.2255 10.7308C14.6335 12.0492 13.6289 13.1396 12.3632 13.8374C11.0976 14.5353 9.63938 14.8029 8.20838 14.5999C6.77739 14.397 5.45113 13.7344 4.42946 12.7121L1.00017 9.48278" stroke="currentColor" stroke-width="2" stroke-linecap="round" stroke-linejoin="round"/>
</svg>
